<svg fill="#4EE1ED" enable-background="new 0 0 512 512" height="512" viewBox="0 0 512 512" width="512" id="cake-icon" class="icon" xmlns="http://www.w3.org/2000/svg">
  <g>
    <path d="m105.338 323.188c12.498 0 22.666-10.168 22.666-22.665 0-29.04 23.625-52.666 52.665-52.666s52.666 23.625 52.666 52.665v78.131c0 12.497 10.168 22.665 22.666 22.665s22.666-10.168 22.666-22.665v-78.131c0-29.04 23.625-52.665 52.666-52.665 12.498 0 22.666-10.167 22.666-22.665 0-27.496 22.37-49.866 49.866-49.866 13.555 0 24.668-10.646 25.424-24.016-.707-11.87-10.582-21.31-22.624-21.31h-106.674c7.602-9.581 12.159-21.681 12.159-34.833 0-24.592-15.898-45.527-37.95-53.107 4.152-7.2 11.924-12.06 20.815-12.06h2.135v-30h-2.135c-25.163 0-46.361 17.297-52.334 40.625-24.552 5.997-42.833 28.169-42.833 54.542 0 13.152 4.557 25.252 12.159 34.833h-106.672c-12.498 0-22.666 10.167-22.666 22.665v147.857h.003c.001 12.498 10.168 22.666 22.666 22.666z" />
    <path d="m203.334 378.652v-78.131c0-12.497-10.167-22.665-22.665-22.665s-22.666 10.168-22.666 22.665c0 29.04-23.625 52.666-52.666 52.666-8.111 0-15.799-1.846-22.668-5.136v53.266h125.799c-3.288-6.868-5.134-14.554-5.134-22.665z" />
    <path d="m383.997 225.191c0 29.04-23.625 52.665-52.666 52.665-12.498 0-22.666 10.168-22.666 22.665v78.131c0 8.11-1.846 15.796-5.135 22.665h125.8v-202.21c-7.633 3.963-16.29 6.217-25.468 6.217-10.954.001-19.865 8.913-19.865 19.867z" />
    <path d="m0 431.317v30h23.63l15.015 50.683h434.71l15.015-50.683h23.63v-30z" />
  </g>
</svg>